<svg t="1658550785794" class="icon" viewBox="0 0 1024 1024" version="1.1" xmlns="http://www.w3.org/2000/svg" p-id="22653" width="22" height="22">
<path d="M185.856 213.504H844.8v573.44H185.856z" fill="#FFFFFF" p-id="22654"></path>
<path d="M973.824 0H50.176C22.528 0 0 22.528 0 50.176v923.136c0 27.648 22.528 50.176 50.176 50.176h923.136c27.648 0 50.176-22.528 50.176-50.176V50.176c0.512-27.648-22.016-50.176-49.664-50.176zM512 681.472c-7.68 0-15.36-0.512-23.04-1.024-44.544 44.032-119.296 51.2-119.296 51.2 22.528-18.432 38.4-41.984 49.152-65.024-88.576-29.184-150.528-98.816-150.528-179.712 0-107.52 109.056-194.56 243.712-194.56s243.712 87.04 243.712 194.56-109.056 194.56-243.712 194.56z" fill="#0DCC9A" p-id="22655"></path>
<path d="M602.112 438.272H421.888c-8.704 0-15.36-6.656-15.36-15.36s6.656-15.36 15.36-15.36h180.736c8.704 0 15.36 6.656 15.36 15.36s-7.168 15.36-15.872 15.36z m-51.2 64H421.888c-8.704 0-15.36-6.656-15.36-15.36s6.656-15.36 15.36-15.36h129.536c8.704 0 15.36 6.656 15.36 15.36s-7.168 15.36-15.872 15.36z m-46.592 64H421.888c-8.704 0-15.36-6.656-15.36-15.36s6.656-15.36 15.36-15.36h82.432c8.704 0 15.36 6.656 15.36 15.36s-7.168 15.36-15.36 15.36z" fill="#0DCC9A" p-id="22656">
</path>
</svg>