<svg t="1658479213218" class="icon" viewBox="0 0 1024 1024" version="1.1" xmlns="http://www.w3.org/2000/svg" p-id="22270" width="22" height="22"><path d="M512 1024a512 512 0 1 1 512-512 512 512 0 0 1-512 512z m0-960a448 448 0 1 0 448 448A448 448 0 0 0 512 64z" fill="#54C3F1" p-id="22271"></path><path d="M480 64h64v896h-64z" fill="#54C3F1" p-id="22272"></path><path d="M512 1024c-143.68 0-256-224-256-512s112.32-512 256-512 256 224 256 512-112.32 512-256 512z m0-960c-90.88 0-192 184-192 448s101.12 448 192 448 192-184 192-448-101.12-448-192-448z" fill="#54C3F1" p-id="22273"></path><path d="M32 480h960v64H32zM96 256h832v64H96zM96 704h832v64H96z" fill="#54C3F1" p-id="22274"></path></svg>