<svg t="1658321929905" class="icon" viewBox="0 0 1024 1024" version="1.1" xmlns="http://www.w3.org/2000/svg" p-id="15181" width="32" height="32"><path d="M512 0.085333C229.269333 0.085333 0.042667 229.226667 0.042667 512.042667 0.042667 794.837333 229.269333 1023.978667 512 1023.978667c282.794667 0 511.936-229.141333 511.936-511.936C1023.936 229.226667 794.794667 0.085333 512 0.085333z m-204.522667 118.421334a442.389333 442.389333 0 0 1 69.781334-29.205334c-25.194667 36.928-46.912 83.904-63.893334 138.218667-25.408-16.234667-40.277333-35.690667-40.277333-56.789333 0-19.178667 13.034667-36.864 34.389333-52.224zM208.170667 189.226667c7.914667 40.085333 39.317333 76.053333 88.256 102.933333-12.629333 56.938667-20.48 119.530667-22.528 185.749333H70.016A442.112 442.112 0 0 1 208.170667 189.226667z m0 645.610666a442.112 442.112 0 0 1-138.154667-288.682666h203.818667c2.048 66.218667 9.962667 128.810667 22.592 185.749333-48.938667 26.752-80.341333 62.869333-88.256 102.933333z m99.306666 70.72c-21.354667-15.36-34.389333-33.109333-34.389333-52.224 0-21.098667 14.869333-40.618667 40.277333-56.853333 16.981333 54.4 38.698667 101.290667 63.893334 138.282667a439.274667 439.274667 0 0 1-69.781334-29.205334zM477.866667 946.773333c-42.88-22.592-79.808-87.296-104.448-176.576a453.12 453.12 0 0 1 104.448-17.813333v194.389333z m0-262.186666a485.632 485.632 0 0 0-119.125334 21.653333 1033.813333 1033.813333 0 0 1-16.725333-160.085333H477.866667v138.432z m0-206.677334h-135.850667c1.408-53.717333 6.997333-107.242667 16.725333-160.064 38.656 12.117333 78.677333 19.392 119.125334 21.696v138.368z m0-206.229333a460.266667 460.266667 0 0 1-104.448-17.813333c24.64-89.28 61.568-153.92 104.448-176.576v194.389333zM815.808 189.226667a441.6 441.6 0 0 1 138.090667 288.682666H750.08c-2.048-66.218667-9.962667-128.810667-22.592-185.749333 49.002667-26.816 80.405333-62.848 88.32-102.933333z m-99.306667-70.72c21.354667 15.36 34.410667 33.045333 34.410667 52.224 0 21.098667-14.890667 40.554667-40.277333 56.789333-17.002667-54.314667-38.72-101.290667-63.957334-138.218667 24.064 7.701333 47.424 17.472 69.824 29.205334zM546.133333 77.290667c42.922667 22.656 79.850667 87.296 104.426667 176.576a460.074667 460.074667 0 0 1-104.426667 17.813333V77.290667z m0 262.250666a490.666667 490.666667 0 0 0 119.104-21.632c9.216 48.938667 15.082667 102.869333 16.725334 160H546.133333v-138.368z m0 206.613334h135.829334a1032.96 1032.96 0 0 1-16.725334 160.149333 484.288 484.288 0 0 0-119.104-21.653333v-138.496z m0 400.618666v-194.389333a453.12 453.12 0 0 1 104.426667 17.813333c-24.576 89.28-61.504 153.984-104.426667 176.576z m170.368-41.216a443.584 443.584 0 0 1-69.76 29.269334c25.173333-36.992 46.954667-83.882667 63.957334-138.282667 25.386667 16.234667 40.277333 35.754667 40.277333 56.853333-0.064 19.050667-13.12 36.8-34.474667 52.16z m99.306667-70.72c-7.914667-40.064-39.381333-76.117333-88.32-102.933333a998.741333 998.741333 0 0 0 22.592-185.749333h203.818667a441.6 441.6 0 0 1-138.090667 288.682666z" p-id="15182" fill="#2c2c2c"></path></svg>