<svg t="1675263829364" class="icon" viewBox="0 0 1024 1024" version="1.1" xmlns="http://www.w3.org/2000/svg" p-id="8959" width="200" height="200"><path d="M510.139764 510.148298m-510.131231 0a510.131231 510.131231 0 1 0 1020.262462 0 510.131231 510.131231 0 1 0-1020.262462 0Z" fill="#3192F2" p-id="8960"></path><path d="M281.9793 575.393077c16.639723-12.356061 52.22313 0.204797 52.22313 0.204796l26.111565 8.82332a22.322828 22.322828 0 0 0 26.060365-8.618523l70.381761-76.269662a17.066382 17.066382 0 0 0-2.986617-25.701972l-146.463692-99.053282a22.305762 22.305762 0 0 1-0.136531-34.900752l8.652655-8.703855c43.655806-25.667839 104.343861 0.42666 104.343861 0.42666l113.269579 61.55844c11.553941 6.314561 26.043299-8.618523 26.043299-8.618523l137.04305-119.652405c20.155397-15.18908 46.693622-8.959851 60.073665 4.300728 13.380044 13.243513 15.871735 33.535441 2.679422 55.158547l-121.171314 139.125148s-13.82377 15.922935-8.58439 26.145698l61.319511 113.696238s26.111565 60.824586 0.42666 104.719321l-8.652656 8.703855c-9.676639 8.328395-23.910001 8.516125-33.791437 0.42666l-94.616023-144.535191a17.066382 17.066382 0 0 0-25.428909-3.58394l-77.481376 66.780753c-7.492142 6.434026-14.506425 17.885569-12.287795 27.511008l8.806253 26.23103s12.526725 35.634606 0.204797 52.342594a23.654006 23.654006 0 0 1-38.570024-7.560407c-12.97045-31.026683-27.152614-54.697755-42.580623-70.99615-15.957067-16.895718-41.761437-33.091715-77.378977-48.58799a24.268396 24.268396 0 0 1-7.509209-39.372144z" fill="#FFFFFF" p-id="8961"></path></svg>