<svg t="1675263779071" class="icon" viewBox="0 0 1024 1024" version="1.1" xmlns="http://www.w3.org/2000/svg" p-id="6565" width="200" height="200"><path d="M512.41 511.75m-447.5 0a447.5 447.5 0 1 0 895 0 447.5 447.5 0 1 0-895 0Z" fill="#074EEC" p-id="6566"></path><path d="M335.58 511.75m-144.87 0a144.87 144.87 0 1 0 289.74 0 144.87 144.87 0 1 0-289.74 0Z" fill="#D9E2FB" p-id="6567"></path><path d="M689.23 511.75m-144.87 0a144.87 144.87 0 1 0 289.74 0 144.87 144.87 0 1 0-289.74 0Z" fill="#D9E2FB" p-id="6568"></path><path d="M512.41 334.93m-144.87 0a144.87 144.87 0 1 0 289.74 0 144.87 144.87 0 1 0-289.74 0Z" fill="#FFFFFF" p-id="6569"></path><path d="M512.41 688.58m-144.87 0a144.87 144.87 0 1 0 289.74 0 144.87 144.87 0 1 0-289.74 0Z" fill="#FFFFFF" p-id="6570"></path></svg>